#!OML:ASF G:\JayActor3\Patient Classification 1\Patient 1\Session 2\male.ASF
:FULLY-SPECIFIED
:DEGREES
3821
root -32.7394 16.3278 -3.65234 -556.915 78.2772 -206.389
lowerback 7.77688 -1.02583 2.28126
upperback 2.05939 -1.04524 2.0214
thorax -2.23441 -0.491555 0.902118
lowerneck -20.0558 -3.70122 -2.23068
upperneck 2.64747 -4.55715 4.17203
head 4.10242 -1.93956 1.25009
rclavicle 2.90226e-014 -3.02153e-014
rhumerus -49.5893 11.2084 -83.6465
rradius 51.4374
rwrist -6.04577
rhand -28.142 7.18602
rfingers 7.12502
rthumb -1.52304 -22.7883
lclavicle 2.90226e-014 -3.02153e-014
lhumerus -43.0515 -37.3609 96.309
lradius 69.8052
lwrist 23.861
lhand -14.346 17.0735
lfingers 7.12502
lthumb 11.7954 46.7214
rfemur -37.6166 3.80066 13.4221
rtibia 52.2897
rfoot -22.9127 -6.42336
rtoes 18.3255
lfemur 2.20153 -0.401866 -19.8009
ltibia 27.6573
lfoot -16.9743 -0.570723
ltoes -9.25156
3822
root -32.6416 16.3495 -3.63564 -556.562 77.9613 -205.958
lowerback 7.76131 -0.974351 2.40902
upperback 2.04045 -0.963269 2.09482
thorax -2.24606 -0.450601 0.898325
lowerneck -20.067 -3.75916 -2.24317
upperneck 2.89265 -4.64771 4.18707
head 4.1843 -1.98326 1.24596
rclavicle 1.55052e-014 9.54166e-015
rhumerus -49.66 11.2186 -83.6274
rradius 51.4479
rwrist -6.07431
rhand -28.0179 7.14719
rfingers 7.12502
rthumb -1.40318 -22.8279
lclavicle 1.55052e-014 9.54166e-015
lhumerus -43.5173 -37.386 96.6036
lradius 69.4153
lwrist 23.6916
lhand -14.3865 16.973
lfingers 7.12502
lthumb 11.7564 46.6231
rfemur -36.984 3.61435 13.546
rtibia 52.1184
rfoot -23.099 -6.40056
rtoes 18.0365
lfemur 1.63493 -0.165994 -19.7328
ltibia 28.7774
lfoot -17.1565 -0.584795
ltoes -9.68323
3823
root -32.5446 16.3718 -3.6195 -556.284 77.6663 -205.598
lowerback 7.7464 -0.911962 2.51695
upperback 2.01956 -0.868509 2.16557
thorax -2.25967 -0.403333 0.901721
lowerneck -20.0829 -3.81595 -2.26461
upperneck 3.13554 -4.73471 4.20759
head 4.26655 -2.02474 1.24515
rclavicle 2.0276e-014 -1.74931e-014
rhumerus -49.7261 11.2411 -83.6158
rradius 51.4549
rwrist -6.11173
rhand -27.896 7.10631
rfingers 7.12502
rthumb -1.28548 -22.8696
lclavicle 2.0276e-014 -1.74931e-014
lhumerus -43.9738 -37.3817 96.849
lradius 69.0517
lwrist 23.5236
lhand -14.3073 17.1332
lfingers 7.12502
lthumb 11.8328 46.7789
rfemur -36.353 3.43366 13.6646
rtibia 51.9385
rfoot -23.2695 -6.35622
rtoes 17.7816
lfemur 1.07759 0.093244 -19.6847
ltibia 29.7965
lfoot -17.3605 -0.609446
ltoes -10.2235
3824
root -32.4484 16.394 -3.60392 -556.093 77.3945 -205.326
lowerback 7.72812 -0.836824 2.6019
upperback 1.99441 -0.759173 2.23011
thorax -2.27539 -0.34895 0.9102
lowerneck -20.1033 -3.87484 -2.29282
upperneck 3.38256 -4.82336 4.23275
head 4.35123 -2.0666 1.2465
rclavicle 1.59028e-015 -3.49861e-014
rhumerus -49.791 11.2691 -83.6139
rradius 51.4563
rwrist -6.15382
rhand -27.7823 7.05809
rfingers 7.12502
rthumb -1.17567 -22.9184
lclavicle 1.59028e-015 -3.49861e-014
lhumerus -44.4195 -37.3482 97.0403
lradius 68.7132
lwrist 23.3893
lhand -14.1842 17.4233
lfingers 7.12502
lthumb 11.9514 47.0622
rfemur -35.7309 3.25813 13.7751
rtibia 51.7618
rfoot -23.4204 -6.29809
rtoes 17.4998
lfemur 0.529341 0.368895 -19.6638
ltibia 30.7098
lfoot -17.575 -0.648318
ltoes -10.8547
3825
root -32.353 16.416 -3.5888 -555.988 77.143 -205.14
lowerback 7.70411 -0.752676 2.65777
upperback 1.96882 -0.640817 2.28961
thorax -2.28803 -0.290101 0.928861
lowerneck -20.1472 -3.92922 -2.32221
upperneck 3.639 -4.90524 4.25565
head 4.44229 -2.10468 1.24751
rclavicle 3.29983e-014 3.65764e-014
rhumerus -49.8452 11.3133 -83.6254
rradius 51.4328
rwrist -6.15648
rhand -27.7263 7.04297
rfingers 7.12502
rthumb -1.12161 -22.9338
lclavicle 3.29983e-014 3.65764e-014
lhumerus -44.8447 -37.2773 97.1706
lradius 68.3998
lwrist 23.2984
lhand -14.0356 17.7961
lfingers 7.12502
lthumb 12.0948 47.4266
rfemur -35.1224 3.10018 13.8707
rtibia 51.5953
rfoot -23.5607 -6.20978
rtoes 17.2935
lfemur -0.0106704 0.65396 -19.6737
ltibia 31.5152
lfoot -17.7972 -0.704793
ltoes -11.4551
3826
root -32.2581 16.4379 -3.57406 -555.938 76.9113 -205.016
lowerback 7.67363 -0.66081 2.69306
upperback 1.93771 -0.514663 2.34036
thorax -2.30265 -0.227562 0.949295
lowerneck -20.2007 -3.97709 -2.34762
upperneck 3.89234 -4.9792 4.2825
head 4.53377 -2.13814 1.24972
rclavicle -3.49861e-014 -3.49861e-014
rhumerus -49.8976 11.3645 -83.6544
rradius 51.3902
rwrist -6.11663
rhand -27.7229 7.06293
rfingers 7.12502
rthumb -1.11832 -22.9139
lclavicle -3.49861e-014 -3.49861e-014
lhumerus -45.2595 -37.1765 97.2405
lradius 68.1091
lwrist 23.2472
lhand -13.8861 18.2115
lfingers 7.12502
lthumb 12.2389 47.8334
rfemur -34.5377 2.96566 13.9545
rtibia 51.4476
rfoot -23.6729 -6.11232
rtoes 17.0616
lfemur -0.546323 0.93625 -19.7124
ltibia 32.2114
lfoot -18.0131 -0.776218
ltoes -12.0898
3827
root -32.1638 16.4597 -3.55982 -555.921 76.6954 -204.928
lowerback 7.63533 -0.564625 2.71129
upperback 1.90548 -0.384917 2.38453
thorax -2.31406 -0.163292 0.972144
lowerneck -20.272 -4.0184 -2.36535
upperneck 4.14023 -5.04514 4.30766
head 4.6259 -2.16712 1.25073
rclavicle -3.10104e-014 -2.22639e-014
rhumerus -49.9392 11.4209 -83.6949
rradius 51.3286
rwrist -6.0288
rhand -27.7675 7.11818
rfingers 7.12502
rthumb -1.16138 -22.8584
lclavicle -3.10104e-014 -2.22639e-014
lhumerus -45.6573 -37.0457 97.2506
lradius 67.8314
lwrist 23.2184
lhand -13.7647 18.5586
lfingers 7.12502
lthumb 12.3559 48.1735
rfemur -33.9787 2.83931 14.0309
rtibia 51.3245
rfoot -23.7515 -6.00244
rtoes 16.7999
lfemur -1.07686 1.20703 -19.7772
ltibia 32.7956
lfoot -18.2131 -0.883981
ltoes -12.6364
3828
root -32.0703 16.4814 -3.54632 -555.911 76.4952 -204.853
lowerback 7.58873 -0.465376 2.72379
upperback 1.87163 -0.252395 2.42069
thorax -2.32261 -0.0977417 0.989691
lowerneck -20.356 -4.05482 -2.38214
upperneck 4.37679 -5.1047 4.3438
head 4.71664 -2.19171 1.25554
rclavicle -4.37326e-015 6.99722e-014
rhumerus -49.9673 11.4736 -83.743
rradius 51.2543
rwrist -5.91055
rhand -27.8384 7.20167
rfingers 7.12502
rthumb -1.2298 -22.7745
lclavicle -4.37326e-015 6.99722e-014
lhumerus -46.0447 -36.8941 97.2052
lradius 67.5647
lwrist 23.1942
lhand -13.7024 18.7999
lfingers 7.12502
lthumb 12.4161 48.4112
rfemur -33.4538 2.71661 14.1049
rtibia 51.2339
rfoot -23.7845 -5.89347
rtoes 16.4529
lfemur -1.60146 1.45559 -19.8657
ltibia 33.2681
lfoot -18.4091 -1.03026
ltoes -13.1046
3829
root -31.9776 16.5037 -3.53367 -555.871 76.3079 -204.749
lowerback 7.53952 -0.366372 2.7424
upperback 1.83451 -0.120121 2.45031
thorax -2.33321 -0.0324691 0.997195
lowerneck -20.4464 -4.08683 -2.39533
upperneck 4.59896 -5.15908 4.38884
head 4.80402 -2.21273 1.26311
rclavicle 1.51076e-014 -3.97569e-014
rhumerus -49.9842 11.5182 -83.7968
rradius 51.1814
rwrist -5.79531
rhand -27.9047 7.27732
rfingers 7.12502
rthumb -1.29392 -22.6985
lclavicle 1.51076e-014 -3.97569e-014
lhumerus -46.4302 -36.7243 97.1126
lradius 67.3074
lwrist 23.1589
lhand -13.7189 18.9009
lfingers 7.12502
lthumb 12.4001 48.5131
rfemur -32.9701 2.58296 14.1882
rtibia 51.1827
rfoot -23.753 -5.82363
rtoes 15.8995
lfemur -2.12132 1.67669 -19.969
ltibia 33.6323
lfoot -18.5868 -1.2258
ltoes -13.5839
3830
root -31.8858 16.5258 -3.52219 -555.809 76.134 -204.622
lowerback 7.4863 -0.266472 2.76972
upperback 1.79871 0.013497 2.47314
thorax -2.34024 0.0334151 0.992765
lowerneck -20.5411 -4.11932 -2.4081
upperneck 4.80702 -5.21424 4.44356
head 4.88809 -2.23315 1.27362
rclavicle 3.02153e-014 1.11319e-014
rhumerus -49.9875 11.5439 -83.8473
rradius 51.1218
rwrist -5.7024
rhand -27.9439 7.32223
rfingers 7.12502
rthumb -1.33178 -22.6534
lclavicle 3.02153e-014 1.11319e-014
lhumerus -46.8107 -36.5433 96.9777
lradius 67.0534
lwrist 23.1086
lhand -13.8106 18.849
lfingers 7.12502
lthumb 12.3117 48.4665
rfemur -32.5235 2.4244 14.2821
rtibia 51.1787
rfoot -23.6562 -5.7702
rtoes 15.1942
lfemur -2.63222 1.86981 -20.0883
ltibia 33.8987
lfoot -18.7627 -1.47891
ltoes -14.0322
3831
root -31.7954 16.5476 -3.51187 -555.694 75.9687 -204.435
lowerback 7.44118 -0.169704 2.81686
upperback 1.76178 0.144757 2.49069
thorax -2.35283 0.097976 0.972141
lowerneck -20.6337 -4.15086 -2.4222
upperneck 4.99678 -5.26778 4.50711
head 4.96648 -2.25202 1.28745
rclavicle -2.5842e-014 4.77083e-015
rhumerus -49.9831 11.5527 -83.8957
rradius 51.0871
rwrist -5.63657
rhand -27.9497 7.32153
rfingers 7.12502
rthumb -1.33736 -22.654
lclavicle -2.5842e-014 4.77083e-015
lhumerus -47.1933 -36.3521 96.8062
lradius 66.8066
lwrist 23.0438
lhand -13.9526 18.7524
lfingers 7.12502
lthumb 12.1748 48.3781
rfemur -32.1152 2.23338 14.3935
rtibia 51.2266
rfoot -23.4969 -5.70259
rtoes 14.4986
lfemur -3.13689 2.03051 -20.2144
ltibia 34.0798
lfoot -18.9315 -1.78593
ltoes -14.4493
3832
root -31.7068 16.5685 -3.50272 -555.528 75.8151 -204.19
lowerback 7.40552 -0.0758679 2.88498
upperback 1.72622 0.274129 2.50432
thorax -2.36901 0.161497 0.935989
lowerneck -20.73 -4.18303 -2.4425
upperneck 5.17166 -5.32069 4.58039
head 5.04131 -2.26977 1.30546
rclavicle -3.10104e-014 1.08139e-013
rhumerus -49.97 11.5494 -83.9429
rradius 51.0687
rwrist -5.56299
rhand -27.9738 7.31305
rfingers 7.12502
rthumb -1.36065 -22.6624
lclavicle -3.10104e-014 1.08139e-013
lhumerus -47.5641 -36.1477 96.593
lradius 66.5677
lwrist 22.9873
lhand -14.1157 18.6244
lfingers 7.12502
lthumb 12.0176 48.2594
rfemur -31.7431 1.99839 14.5263
rtibia 51.3313
rfoot -23.2731 -5.59486
rtoes 13.8542
lfemur -3.63797 2.16579 -20.3435
ltibia 34.1902
lfoot -19.0957 -2.14059
ltoes -14.815
3833
root -31.6199 16.5885 -3.49464 -555.323 75.6682 -203.893
lowerback 7.37696 0.0138301 2.96608
upperback 1.6962 0.399343 2.51699
thorax -2.3831 0.223004 0.89202
lowerneck -20.8344 -4.21415 -2.46571
upperneck 5.33746 -5.37057 4.65189
head 5.11455 -2.28595 1.32364
rclavicle -2.70347e-014 -7.95139e-015
rhumerus -49.9436 11.5386 -83.9819
rradius 51.0732
rwrist -5.49598
rhand -27.9924 7.28758
rfingers 7.12502
rthumb -1.37856 -22.6877
lclavicle -2.70347e-014 -7.95139e-015
lhumerus -47.9173 -35.9286 96.3408
lradius 66.3411
lwrist 22.9531
lhand -14.2781 18.5089
lfingers 7.12502
lthumb 11.8609 48.153
rfemur -31.4027 1.71515 14.6746
rtibia 51.4915
rfoot -22.9935 -5.41799
rtoes 13.3965
lfemur -4.13405 2.28438 -20.4755
ltibia 34.2426
lfoot -19.254 -2.52153
ltoes -15.16
3834
root -31.5345 16.6079 -3.4875 -555.083 75.5295 -203.545
lowerback 7.36156 0.0988122 3.06012
upperback 1.67149 0.519947 2.52836
thorax -2.39863 0.282243 0.839896
lowerneck -20.9416 -4.24188 -2.49075
upperneck 5.49228 -5.41481 4.72355
head 5.18472 -2.29922 1.34282
rclavicle -2.74323e-014 -1.43125e-014
rhumerus -49.9108 11.5287 -84.0183
rradius 51.1022
rwrist -5.43001
rhand -28.0246 7.27859
rfingers 7.12502
rthumb -1.40965 -22.6965
lclavicle -2.74323e-014 -1.43125e-014
lhumerus -48.2503 -35.6946 96.0493
lradius 66.1207
lwrist 22.9368
lhand -14.4328 18.3999
lfingers 7.12502
lthumb 11.7118 48.0525
rfemur -31.0932 1.39047 14.8357
rtibia 51.7038
rfoot -22.6437 -5.18275
rtoes 13.0962
lfemur -4.61995 2.3889 -20.6077
ltibia 34.2455
lfoot -19.4027 -2.90028
ltoes -15.5033
3835
root -31.4503 16.6278 -3.48118 -554.828 75.3978 -203.167
lowerback 7.35617 0.180342 3.15539
upperback 1.65407 0.636608 2.54079
thorax -2.41189 0.339671 0.788548
lowerneck -21.052 -4.26479 -2.51275
upperneck 5.6396 -5.45186 4.78528
head 5.25243 -2.30953 1.35917
rclavicle -1.74931e-014 0
rhumerus -49.8684 11.5268 -84.0489
rradius 51.1535
rwrist -5.37319
rhand -28.0639 7.27497
rfingers 7.12502
rthumb -1.44764 -22.6999
lclavicle -1.74931e-014 0
lhumerus -48.5616 -35.4484 95.7258
lradius 65.9049
lwrist 22.9377
lhand -14.5727 18.3229
lfingers 7.12502
lthumb 11.5768 47.9831
rfemur -30.8039 1.02522 15.0029
rtibia 51.9554
rfoot -22.2189 -4.91934
rtoes 12.8496
lfemur -5.09556 2.48854 -20.742
ltibia 34.2055
lfoot -19.534 -3.24758
ltoes -15.8231
